# xmcd
#
# Track frame offsets:
#	150
#	19464
#	36939
#	57574
#	76877
#	93447
#	113302
#	133400
#	153936
#	172500
#	186710
#	207400
#	226427
#	243888
#
# Disc length: 3523 seconds
#
# Revision: 2
# Processed by: cddbd v1.4PL0 Copyright (c) Steve Scherf et al.
# Submitted via: EasyCDDAExtractor 5.0.6
#
DISCID=b80dc10e
DTITLE=variado - Explosion Merenguera 98
DYEAR=1900
DGENRE=
TTITLE0=Con La Misma Piedra
TTITLE1=La Paleta
TTITLE2=Tu Sonrisa
TTITLE3=Ay Que Olla
TTITLE4=Mamasota
TTITLE5=El Cepillo
TTITLE6=Suavemente
TTITLE7=Por Que Tanto Problema
TTITLE8=Las Mujeres Feas
TTITLE9=Ñacuñacu
TTITLE10=Corazon Encadenado
TTITLE11=Merembe
TTITLE12=Y Es Facil
TTITLE13=Quizas Si,Quizas No
EXTD=
EXTT0=
EXTT1=
EXTT2=
EXTT3=
EXTT4=
EXTT5=
EXTT6=
EXTT7=
EXTT8=
EXTT9=
EXTT10=
EXTT11=
EXTT12=
EXTT13=
PLAYORDER=
